<svg xmlns="http://www.w3.org/2000/svg" fill="none" viewBox="0 0 128 128">
    <style>
        path { fill: #111111; }
        @media (prefers-color-scheme: dark) {
            path { fill: #ffffff; }
        }
    </style>
    <path d="M37.423,79.374c-0.078,1.853 -0.182,3.463 -0.314,4.828c-0.203,2.109 -0.499,3.904 -0.888,5.384c-0.388,1.48 -0.916,2.96 -1.582,4.44c-1.998,4.514 -4.449,7.964 -7.354,10.351c-2.904,2.386 -6.169,3.579 -9.795,3.579c-3.256,0 -5.819,-0.841 -7.687,-2.525c-1.869,-1.683 -2.803,-3.95 -2.803,-6.799c-0,-2.072 0.444,-3.69 1.332,-4.856c0.888,-1.165 2.072,-1.748 3.552,-1.748c1.295,-0 2.331,0.416 3.108,1.249c0.777,0.832 1.406,2.118 1.887,3.857c0.703,2.146 1.369,3.607 1.998,4.384c0.629,0.777 1.48,1.166 2.553,1.166c2.442,-0 4.255,-1.489 5.439,-4.468c1.184,-2.978 1.776,-7.52 1.776,-13.625l0,-54.502l-6.604,-3.052l-0,-1.61l14.208,-5.383l0.999,-0l-0,9.274c0.129,-0.153 0.258,-0.304 0.388,-0.453c2.269,-2.605 4.711,-4.676 7.326,-6.213c2.96,-1.739 5.902,-2.608 8.825,-2.608c8.436,-0 12.654,4.976 12.654,14.929l0,53.503c0,4.847 0.685,8.177 2.054,9.99c1.369,1.813 3.552,2.719 6.549,2.719c2.035,0 4.023,-0.666 5.966,-1.998c1.644,-1.127 3.189,-2.798 4.634,-5.012l0,-53.929c0,-4.514 0.083,-7.733 0.25,-9.657c0.166,-1.924 0.49,-3.515 0.971,-4.773c0.777,-1.85 2.063,-3.275 3.857,-4.274c1.795,-0.999 3.987,-1.498 6.577,-1.498c4.255,-0 8.233,1.221 11.933,3.663c2.738,1.813 4.949,3.986 6.632,6.521c1.684,2.534 2.525,5.004 2.525,7.409c0,1.665 -0.397,3.016 -1.193,4.052c-0.795,1.036 -1.822,1.554 -3.08,1.554c-1.406,-0 -2.562,-0.611 -3.469,-1.832c-0.906,-1.221 -1.36,-2.775 -1.36,-4.662c0,-0.629 0.037,-1.286 0.111,-1.97c0.074,-0.685 0.111,-1.378 0.111,-2.081c0,-2.516 -0.721,-4.514 -2.164,-5.994c-1.443,-1.48 -3.386,-2.22 -5.828,-2.22c-2.516,-0 -4.282,0.943 -5.3,2.83c-1.017,1.887 -1.526,5.18 -1.526,9.879l-0,10.379c8.806,2.257 15.059,4.865 18.759,7.825c3.7,2.96 5.55,6.882 5.55,11.767c-0,3.959 -0.99,7.178 -2.969,9.657c-1.98,2.479 -4.542,3.718 -7.687,3.718c-2.627,0 -5.134,-0.888 -7.52,-2.664c-2.387,-1.776 -4.431,-4.181 -6.133,-7.215l-0,27.695l6.049,2.664l0,1.498l-13.875,5.439l-0.721,0l-0,-10.183c-2.187,3.237 -4.629,5.725 -7.326,7.464c-2.812,1.813 -5.698,2.719 -8.658,2.719c-4.44,0 -7.687,-1.285 -9.741,-3.857c-2.053,-2.571 -3.08,-6.299 -3.08,-11.183l-0,-53.225c-0,-4.403 -0.703,-7.687 -2.109,-9.852c-1.406,-2.164 -3.7,-3.246 -6.882,-3.246c-4.168,-0 -7.72,2.148 -10.656,6.445l-0.056,9.562l0,21.011c0,5.07 -0.037,9.241 -0.111,12.516c-0.026,1.155 -0.06,2.237 -0.102,3.247Zm57.268,-28.361l-0,15.651c1.073,2.146 2.414,3.82 4.024,5.023c1.609,1.202 3.339,1.804 5.189,1.804c4.218,-0 6.327,-2.979 6.327,-8.936c-0,-2.479 -0.463,-4.542 -1.388,-6.188c-0.925,-1.647 -2.525,-3.044 -4.8,-4.191c-2.276,-1.147 -5.393,-2.201 -9.352,-3.163Z" />
</svg>
