<svg xmlns="http://www.w3.org/2000/svg" fill="none" viewBox="0 0 128 128" >
    <g id="Fills">
        <path id="Hexagon-A" d="M45.333,33.782l37.334,21.555l-0,43.109l-37.334,21.554l-37.333,-21.554l-0,-43.109l37.333,-21.555Z" />
        <path id="Hexagon-B" d="M8,55.337l-0,-47.337l37.333,-0l0,25.782l-37.333,21.555Z" />
        <path id="Trapezoid-A" d="M89.99,8l-44.657,25.782l0,-25.782l44.657,-0Z" />
        <path id="Trapezoid-B" d="M120,120l-37.333,-21.554l-0,-43.109l37.333,-21.555l-0,86.218Z" />
        <path id="Rhombus-A" d="M120,8l-0,25.782l-37.333,21.555l-0,-43.109l7.323,-4.228l30.01,-0Z" />
        <path id="Rhombus-B" d="M45.333,120l37.334,-21.554l37.333,21.554l-74.667,0Z" />
        <path id="Triangle-A" d="M8,120l0,-21.554l37.333,21.554l-37.333,-0Z" />
        <path id="Triangle-B" d="M82.667,55.337l-37.334,-21.555l37.334,-21.554l-0,43.109Z" />
    </g>
    <rect id="Square" x="8" y="8" width="112" height="112" stroke="#111111" stroke-width="7px" />
    <g id="Strokes" stroke="#111111" stroke-width="7px">
        <path d="M45.333,120l-37.333,-21.554" />
        <path d="M82.667,98.446l-37.334,21.554" />
        <path d="M82.667,98.446l37.333,21.554" />
        <path d="M8,55.337l37.333,-21.555" />
        <path d="M45.333,33.782l37.334,21.555" />
        <path d="M82.667,55.337l-0,43.109" />
        <path d="M45.333,33.782l0,-25.782" />
        <path d="M89.99,8l-44.657,25.782" />
        <path d="M82.667,98.446l-0,-43.109" />
        <path d="M82.667,55.337l-0,-43.109" />
        <path d="M82.667,55.337l37.333,-21.555" />
        <path d="M82.667,12.228l7.323,-4.228" />
        <path d="M82.667,98.446l37.333,21.554" />
    </g>
</svg>
